<svg xmlns="http://www.w3.org/2000/svg" xmlns:xlink="http://www.w3.org/1999/xlink" width="2048" zoomAndPan="magnify" viewBox="0 0 1536 863.999991" height="1152" preserveAspectRatio="xMidYMid meet" version="1.0"><defs><clipPath id="be81620e80"><path d="M 312 78 L 909 78 L 909 740 L 312 740 Z M 312 78 " clip-rule="nonzero"/></clipPath><clipPath id="d3789f4e84"><path d="M 342.796875 42.832031 L 1280.796875 169.398438 L 1192.839844 821.242188 L 254.84375 694.675781 Z M 342.796875 42.832031 " clip-rule="nonzero"/></clipPath><clipPath id="98da43a28d"><path d="M 342.796875 42.832031 L 1280.796875 169.398438 L 1192.839844 821.242188 L 254.84375 694.675781 Z M 342.796875 42.832031 " clip-rule="nonzero"/></clipPath><clipPath id="323f98a867"><path d="M 477 138 L 1252 138 L 1252 763 L 477 763 Z M 477 138 " clip-rule="nonzero"/></clipPath><clipPath id="5f3680fd59"><path d="M 342.796875 42.832031 L 1280.796875 169.398438 L 1192.839844 821.242188 L 254.84375 694.675781 Z M 342.796875 42.832031 " clip-rule="nonzero"/></clipPath><clipPath id="d7e4a164f8"><path d="M 342.796875 42.832031 L 1280.796875 169.398438 L 1192.839844 821.242188 L 254.84375 694.675781 Z M 342.796875 42.832031 " clip-rule="nonzero"/></clipPath></defs><rect x="-153.6" width="1843.2" fill="#ffffff" y="-86.399999" height="1036.79999" fill-opacity="1"/><rect x="-153.6" width="1843.2" fill="#ffffff" y="-86.399999" height="1036.79999" fill-opacity="1"/><g clip-path="url(#be81620e80)"><g clip-path="url(#d3789f4e84)"><g clip-path="url(#98da43a28d)"><path fill="#004aad" d="M 734.054688 667.503906 C 729.117188 666.128906 724.125 665.027344 719.152344 663.757812 L 711.6875 661.914062 L 704.171875 660.300781 L 689.089844 657.109375 L 673.886719 654.476562 L 666.285156 653.195312 L 658.648438 652.144531 L 643.332031 650.054688 L 627.945312 648.472656 L 620.230469 647.6875 L 612.4375 647.171875 C 591.613281 645.863281 570.753906 645.789062 550.054688 647.070312 C 520.660156 648.800781 491.535156 652.671875 462.90625 658.234375 C 467.140625 640.980469 470.375 623.355469 472.472656 605.597656 C 487.472656 602.242188 503.136719 599.554688 518.757812 597.3125 C 537.765625 594.585938 556.953125 592.460938 576.140625 590.957031 C 595.324219 589.476562 614.554688 588.597656 633.6875 588.78125 C 643.25 588.890625 652.714844 589.246094 662.242188 589.933594 C 671.804688 590.515625 681.332031 591.546875 690.863281 592.679688 C 767.054688 602.210938 841.527344 629.722656 907.378906 671.777344 L 908.785156 669.761719 C 877.40625 646.179688 843.375 625.878906 807.347656 609.449219 C 771.335938 593.039062 733.316406 580.5625 694.175781 572.558594 C 684.390625 570.617188 674.542969 568.796875 664.636719 567.4375 C 654.71875 565.96875 644.644531 565.0625 634.679688 564.273438 C 614.691406 562.820312 594.765625 562.488281 574.863281 562.78125 C 554.960938 563.074219 535.097656 564.035156 515.234375 565.621094 C 501.929688 566.71875 488.730469 568 475.320312 569.875 C 476.09375 550.976562 475.753906 532.050781 474.164062 513.347656 C 471.75 483.601562 467.597656 454.027344 461.496094 424.945312 C 458.445312 410.390625 454.839844 395.976562 450.539062 381.789062 C 446.242188 367.605469 441.355469 353.617188 435.304688 340.179688 C 438.730469 354.507812 441.246094 368.902344 443.105469 383.378906 C 444.921875 397.851562 446.15625 412.375 446.984375 426.886719 C 448.117188 447.714844 448.375 468.511719 447.886719 489.273438 C 433.570312 475.492188 420.375 460.535156 408.679688 444.773438 C 399.871094 432.871094 392.039062 420.414062 385.449219 407.65625 C 382.152344 401.273438 379.210938 394.8125 376.765625 388.3125 C 376.171875 386.691406 375.535156 385.0625 375 383.445312 C 374.445312 381.851562 373.898438 380.191406 373.386719 378.429688 L 371.8125 373.265625 L 370.414062 368.066406 C 363.066406 340.246094 360.519531 311.171875 363.140625 282.703125 C 364.351562 268.492188 366.925781 254.332031 370.535156 240.761719 C 374.265625 227.234375 379.320312 214.222656 385.710938 202.273438 C 392.121094 190.34375 399.726562 179.414062 408.683594 170.339844 C 413.152344 165.800781 417.925781 161.707031 422.996094 158.105469 C 425.480469 156.386719 428.234375 154.550781 431.070312 152.898438 C 433.890625 151.21875 436.765625 149.617188 439.726562 148.152344 C 451.488281 142.132812 464.1875 138.210938 476.929688 135.066406 C 489.691406 131.964844 502.75 129.507812 516.113281 129.082031 C 522.804688 128.871094 529.4375 129.273438 536.164062 130.246094 C 543.519531 131.472656 550.902344 132.960938 558.230469 134.699219 C 572.882812 138.21875 587.488281 142.570312 601.679688 148.0625 C 615.957031 153.417969 629.886719 159.925781 643.078125 167.898438 C 656.351562 175.773438 668.816406 185.191406 679.9375 196.613281 L 680.578125 196.140625 C 676.910156 189.023438 672.519531 182.199219 667.628906 175.710938 C 662.746094 169.199219 657.417969 162.953125 651.644531 157.140625 C 640.105469 145.46875 627.273438 134.972656 613.675781 125.535156 C 600 116.230469 585.621094 107.820312 570.585938 100.605469 C 563.085938 96.980469 555.425781 93.566406 547.621094 90.414062 C 539.160156 87.066406 530.273438 84.324219 521.269531 82.445312 C 503.242188 78.535156 484.382812 77.769531 466.210938 80.824219 C 447.980469 83.804688 430.589844 90.414062 414.316406 98.890625 C 410.238281 101.019531 406.246094 103.308594 402.335938 105.757812 C 398.410156 108.164062 394.609375 110.757812 390.691406 113.617188 C 382.976562 119.324219 375.863281 125.691406 369.390625 132.511719 C 356.464844 146.214844 346.09375 161.636719 338.089844 177.761719 C 329.957031 193.871094 324.089844 210.691406 319.949219 227.722656 C 315.972656 244.800781 313.347656 261.886719 312.511719 279.195312 C 311.722656 296.464844 312.28125 313.769531 314.5625 330.832031 C 316.78125 347.90625 320.371094 364.804688 325.707031 381.144531 L 327.710938 387.265625 L 329.914062 393.328125 C 331.328125 397.308594 333.105469 401.597656 334.835938 405.605469 C 338.390625 413.710938 342.402344 421.453125 346.734375 428.894531 C 355.417969 443.800781 365.417969 457.492188 376.167969 470.382812 C 386.921875 483.277344 398.550781 495.214844 410.890625 506.371094 C 421.789062 516.265625 433.351562 525.386719 445.453125 533.835938 C 444.746094 541.300781 443.890625 548.730469 442.824219 556.171875 C 440.867188 570.199219 438.050781 584.089844 434.90625 597.871094 C 433.332031 604.769531 431.570312 611.625 429.871094 618.488281 L 424.363281 639 L 412.566406 680.199219 L 412.566406 680.21875 L 403.019531 714.285156 L 437.449219 706.996094 C 456.859375 702.886719 476.089844 698.839844 495.40625 695.277344 C 505.066406 693.558594 514.699219 691.878906 524.367188 690.398438 C 529.207031 689.636719 534.03125 688.960938 538.875 688.328125 C 543.703125 687.628906 548.539062 687.058594 553.378906 686.449219 C 558.214844 685.859375 563.050781 685.417969 567.898438 684.894531 L 582.4375 683.707031 C 592.128906 683.023438 601.824219 682.464844 611.5 682.378906 L 618.777344 682.269531 L 626.140625 682.339844 L 640.863281 682.484375 L 655.582031 683.121094 L 662.953125 683.449219 L 670.3125 683.992188 C 689.960938 685.273438 709.566406 687.660156 729.140625 690.582031 C 748.695312 693.667969 768.167969 697.496094 787.511719 702.140625 C 826.246094 711.375 864.386719 723.9375 901.730469 739.195312 C 867.277344 718.21875 830.628906 700.355469 792.410156 686.15625 C 773.277344 679.160156 753.855469 672.726562 734.054688 667.503906 Z M 734.054688 667.503906 " fill-opacity="1" fill-rule="nonzero"/></g></g></g><g clip-path="url(#323f98a867)"><g clip-path="url(#5f3680fd59)"><g clip-path="url(#d7e4a164f8)"><path fill="#004aad" d="M 1251.683594 371.65625 C 1252.027344 356.726562 1251.265625 341.882812 1249.609375 327.171875 C 1247.914062 312.417969 1245.226562 297.546875 1241.027344 282.777344 C 1236.785156 267.996094 1231.148438 253.417969 1223.585938 239.28125 C 1216.003906 224.953125 1206.148438 211.605469 1194.777344 199.804688 C 1183.328125 188.105469 1170.3125 178.035156 1156.472656 169.910156 C 1128.664062 153.6875 1098.195312 144.949219 1068.175781 141.132812 C 1053.167969 139.152344 1037.984375 138.625 1023.371094 138.773438 C 1008.667969 138.976562 994.015625 140.0625 979.535156 141.921875 C 950.566406 145.578125 922.285156 152.21875 895.023438 161.179688 C 881.375 165.617188 867.957031 170.578125 854.828125 176.09375 C 841.695312 181.625 828.804688 187.601562 816.382812 193.746094 C 803.925781 199.84375 791.800781 206.199219 779.921875 212.4375 C 768.023438 218.675781 756.296875 224.761719 744.625 230.453125 C 738.789062 233.351562 732.996094 236.125 727.1875 238.832031 L 708.992188 247.113281 C 696.996094 252.5 685.113281 257.496094 673.351562 261.933594 C 649.886719 270.851562 626.28125 277.007812 604.960938 275.886719 C 583.269531 274.996094 561.332031 267.34375 540.40625 254.257812 C 529.898438 247.804688 519.6875 240.105469 509.71875 231.582031 C 499.703125 223.074219 490.042969 213.691406 480.027344 203.921875 L 477.871094 205.128906 C 481.160156 218.859375 486.453125 232.042969 493.230469 244.675781 C 500.058594 257.277344 508.488281 269.277344 518.695312 280.1875 C 528.9375 290.976562 540.941406 300.804688 554.734375 308.300781 C 558.191406 310.160156 561.695312 311.960938 565.335938 313.585938 C 568.980469 315.148438 572.683594 316.59375 576.476562 317.875 C 584.050781 320.503906 591.925781 322.316406 599.90625 323.5 C 607.867188 324.703125 616.09375 325.171875 623.96875 324.925781 C 631.882812 324.730469 639.621094 324.058594 647.164062 322.957031 C 662.238281 320.792969 676.601562 317.265625 690.4375 313.175781 C 704.292969 309.089844 717.554688 304.171875 730.515625 299.277344 L 749.644531 291.851562 C 756.234375 289.226562 762.804688 286.578125 769.203125 283.777344 C 782.046875 278.160156 794.515625 272.28125 806.785156 266.480469 L 842.972656 249.355469 C 854.863281 243.785156 866.609375 238.683594 878.472656 233.984375 C 890.320312 229.21875 902.246094 224.851562 914.328125 221.039062 C 938.453125 213.429688 962.910156 207.496094 987.542969 204.371094 C 1012.058594 201.183594 1037.144531 200.261719 1060.464844 203.066406 C 1083.960938 205.832031 1106.421875 212.460938 1125.414062 223.335938 C 1134.925781 228.757812 1143.515625 235.292969 1151.058594 242.761719 C 1158.496094 250.34375 1164.988281 258.78125 1170.132812 268.28125 C 1175.457031 277.890625 1179.78125 288.566406 1183.121094 299.6875 C 1186.527344 310.820312 1188.992188 322.550781 1190.648438 334.582031 C 1192.277344 346.648438 1193.183594 358.835938 1193.203125 370.902344 C 1193.183594 382.960938 1192.234375 394.917969 1190.464844 406.613281 C 1188.609375 418.296875 1185.789062 429.679688 1181.914062 440.601562 C 1177.941406 451.464844 1173.050781 461.839844 1166.832031 471.710938 C 1154.605469 491.511719 1138.101562 509.316406 1118.921875 523.957031 C 1109.234375 531.285156 1098.902344 538.140625 1088.152344 544.125 C 1077.398438 550.152344 1066.117188 555.316406 1054.511719 559.855469 C 1042.90625 564.394531 1030.933594 568.179688 1018.6875 571.261719 C 1012.941406 572.738281 1007.148438 574.054688 1001.292969 575.214844 C 1001.53125 573.296875 1001.828125 571.410156 1002.066406 569.492188 C 1002.625 565.347656 1003.035156 561.203125 1003.445312 557.035156 C 1003.898438 552.875 1004.3125 548.710938 1004.554688 544.523438 L 1004.996094 538.238281 L 1005.207031 535.097656 L 1005.222656 531.007812 C 1005.085938 525.675781 1004.429688 520.679688 1003.457031 515.8125 C 1001.492188 506.097656 998.394531 496.960938 993.699219 487.949219 C 991.351562 483.433594 988.589844 478.964844 984.992188 474.496094 C 984.03125 473.359375 983.152344 472.253906 982.105469 471.128906 C 980.992188 469.992188 979.863281 468.855469 978.703125 467.753906 C 977.515625 466.714844 976.300781 465.695312 975.0625 464.714844 C 973.820312 463.753906 972.542969 462.894531 971.273438 461.996094 C 960.878906 455.171875 950.023438 452.121094 940.203125 450.410156 C 930.347656 448.824219 921.019531 448.574219 912.640625 448.554688 C 895.613281 448.507812 878.796875 449.453125 862.242188 451.140625 C 829.097656 454.445312 797.054688 460.234375 765.367188 464.660156 C 757.441406 465.753906 749.542969 466.808594 741.648438 467.671875 C 733.695312 468.636719 726.039062 469.167969 718.191406 469.863281 C 702.589844 470.824219 686.949219 470.835938 671.304688 470.050781 C 655.6875 469.082031 640.121094 467.085938 624.691406 464.085938 C 609.28125 460.953125 594.097656 456.59375 579.175781 451.257812 C 564.269531 445.816406 549.847656 438.988281 535.683594 431.375 C 521.652344 423.570312 508.183594 414.617188 495.046875 404.957031 C 506.246094 416.753906 518.25 427.996094 531.339844 438.011719 C 544.484375 447.949219 558.460938 456.949219 573.203125 464.722656 C 588.011719 472.332031 603.492188 478.773438 619.417969 484.113281 C 635.429688 489.144531 651.816406 493.007812 668.421875 495.867188 C 685.0625 498.457031 701.859375 499.910156 718.710938 500.46875 L 731.335938 500.585938 C 735.566406 500.664062 739.734375 500.582031 743.867188 500.457031 C 752.164062 500.269531 760.417969 499.902344 768.660156 499.492188 C 801.582031 497.828125 833.863281 494.878906 865.441406 493.3125 C 881.230469 492.550781 896.835938 492.019531 912.273438 492.261719 C 916.191406 492.273438 919.890625 492.34375 923.355469 492.535156 C 926.84375 492.726562 930.164062 493.066406 933.222656 493.566406 C 939.355469 494.480469 944.40625 496.125 947.664062 498.171875 L 948.84375 498.953125 C 949.191406 499.234375 949.539062 499.515625 949.890625 499.777344 C 950.191406 500.097656 950.496094 500.375 950.824219 500.652344 L 951.96875 501.859375 C 953.546875 503.636719 955.222656 506.003906 956.847656 508.558594 C 960.054688 513.707031 962.960938 519.777344 965.089844 525.761719 C 966.164062 528.757812 967.066406 531.75 967.683594 534.492188 C 967.808594 535.152344 967.933594 535.808594 968.101562 536.476562 L 968.476562 539.417969 L 969.222656 545.304688 C 969.746094 549.230469 970.199219 553.171875 970.632812 557.109375 C 971.085938 561.046875 971.535156 565.007812 971.855469 568.992188 C 973.441406 584.871094 974.085938 600.898438 973.957031 616.953125 C 973.742188 632.992188 973.027344 649.09375 971.964844 665.214844 C 969.820312 697.453125 965.960938 729.714844 961.554688 761.902344 L 963.976562 762.378906 C 971.871094 730.855469 979.648438 699.25 986.246094 667.183594 C 989.527344 651.300781 992.4375 635.28125 994.957031 619.144531 C 1006.027344 618.109375 1017.085938 616.644531 1028.132812 614.640625 C 1042.269531 612.007812 1056.347656 608.484375 1070.191406 604.03125 C 1097.902344 595.085938 1124.535156 582.074219 1148.914062 565.285156 C 1173.410156 548.257812 1195.460938 526.957031 1212.675781 501.46875 C 1221.308594 488.789062 1228.523438 474.851562 1234.289062 460.546875 C 1239.953125 446.203125 1244.15625 431.40625 1247.042969 416.519531 C 1249.871094 401.601562 1251.277344 386.578125 1251.683594 371.65625 Z M 1251.683594 371.65625 " fill-opacity="1" fill-rule="nonzero"/></g></g></g></svg>