<svg xmlns="http://www.w3.org/2000/svg" xmlns:xlink="http://www.w3.org/1999/xlink" width="2048" zoomAndPan="magnify" viewBox="0 0 1536 149.999998" height="200" preserveAspectRatio="xMidYMid meet" version="1.0"><defs><clipPath id="cd8783f7a4"><path d="M 697 20 L 790 20 L 790 123 L 697 123 Z M 697 20 " clip-rule="nonzero"/></clipPath><clipPath id="996a774ee7"><path d="M 701.816406 14.425781 L 848.238281 34.183594 L 834.597656 135.265625 L 688.175781 115.507812 Z M 701.816406 14.425781 " clip-rule="nonzero"/></clipPath><clipPath id="24425a063c"><path d="M 701.816406 14.425781 L 848.238281 34.183594 L 834.597656 135.265625 L 688.175781 115.507812 Z M 701.816406 14.425781 " clip-rule="nonzero"/></clipPath><clipPath id="f5325e7b86"><path d="M 722 29 L 844 29 L 844 127 L 722 127 Z M 722 29 " clip-rule="nonzero"/></clipPath><clipPath id="3283cd5463"><path d="M 701.816406 14.425781 L 848.238281 34.183594 L 834.597656 135.265625 L 688.175781 115.507812 Z M 701.816406 14.425781 " clip-rule="nonzero"/></clipPath><clipPath id="ccaf89fc33"><path d="M 701.816406 14.425781 L 848.238281 34.183594 L 834.597656 135.265625 L 688.175781 115.507812 Z M 701.816406 14.425781 " clip-rule="nonzero"/></clipPath></defs><rect x="-153.6" width="1843.2" fill="#ffffff" y="-15" height="179.999997" fill-opacity="1"/><rect x="-153.6" width="1843.2" fill="#ffffff" y="-15" height="179.999997" fill-opacity="1"/><g clip-path="url(#cd8783f7a4)"><g clip-path="url(#996a774ee7)"><g clip-path="url(#24425a063c)"><path fill="#004aad" d="M 762.714844 111.652344 C 761.945312 111.4375 761.167969 111.265625 760.394531 111.066406 L 759.234375 110.78125 L 758.0625 110.53125 L 755.714844 110.035156 L 753.351562 109.625 L 752.164062 109.425781 L 750.976562 109.261719 L 748.59375 108.933594 L 746.199219 108.6875 L 744.996094 108.566406 L 743.785156 108.488281 C 740.542969 108.28125 737.296875 108.273438 734.074219 108.46875 C 729.5 108.742188 724.964844 109.34375 720.511719 110.207031 C 721.167969 107.523438 721.671875 104.78125 722 102.015625 C 724.335938 101.492188 726.773438 101.074219 729.203125 100.726562 C 732.164062 100.300781 735.148438 99.972656 738.136719 99.738281 C 741.121094 99.507812 744.113281 99.371094 747.09375 99.398438 C 748.582031 99.414062 750.054688 99.472656 751.535156 99.578125 C 753.027344 99.667969 754.507812 99.828125 755.992188 100.003906 C 767.851562 101.488281 779.441406 105.769531 789.691406 112.316406 L 789.910156 112.003906 C 785.027344 108.332031 779.730469 105.171875 774.121094 102.613281 C 768.515625 100.0625 762.597656 98.117188 756.507812 96.875 C 754.984375 96.570312 753.453125 96.289062 751.910156 96.074219 C 750.367188 95.847656 748.796875 95.707031 747.246094 95.582031 C 744.136719 95.355469 741.035156 95.304688 737.9375 95.351562 C 734.839844 95.398438 731.746094 95.546875 728.65625 95.792969 C 726.585938 95.964844 724.53125 96.164062 722.441406 96.457031 C 722.5625 93.515625 722.511719 90.566406 722.261719 87.65625 C 721.886719 83.027344 721.242188 78.425781 720.289062 73.898438 C 719.816406 71.632812 719.253906 69.386719 718.585938 67.179688 C 717.917969 64.972656 717.15625 62.796875 716.214844 60.703125 C 716.746094 62.933594 717.140625 65.175781 717.429688 67.425781 C 717.710938 69.679688 717.902344 71.941406 718.03125 74.199219 C 718.207031 77.441406 718.25 80.679688 718.171875 83.910156 C 715.945312 81.765625 713.890625 79.4375 712.070312 76.984375 C 710.699219 75.128906 709.480469 73.191406 708.453125 71.207031 C 707.941406 70.214844 707.484375 69.207031 707.101562 68.195312 C 707.011719 67.941406 706.910156 67.6875 706.828125 67.4375 C 706.742188 67.191406 706.65625 66.929688 706.578125 66.65625 L 706.332031 65.855469 L 706.113281 65.042969 C 704.96875 60.714844 704.574219 56.1875 704.980469 51.757812 C 705.171875 49.546875 705.570312 47.339844 706.132812 45.230469 C 706.714844 43.125 707.5 41.097656 708.496094 39.238281 C 709.492188 37.382812 710.675781 35.679688 712.070312 34.269531 C 712.765625 33.5625 713.507812 32.925781 714.296875 32.363281 C 714.683594 32.097656 715.113281 31.808594 715.554688 31.554688 C 715.996094 31.292969 716.441406 31.042969 716.902344 30.8125 C 718.734375 29.878906 720.710938 29.265625 722.695312 28.777344 C 724.679688 28.296875 726.710938 27.914062 728.792969 27.847656 C 729.832031 27.8125 730.867188 27.875 731.914062 28.027344 C 733.058594 28.21875 734.207031 28.449219 735.347656 28.722656 C 737.628906 29.269531 739.902344 29.945312 742.109375 30.800781 C 744.332031 31.632812 746.5 32.648438 748.554688 33.886719 C 750.621094 35.113281 752.558594 36.578125 754.292969 38.355469 L 754.390625 38.285156 C 753.820312 37.175781 753.136719 36.113281 752.375 35.105469 C 751.617188 34.089844 750.785156 33.117188 749.886719 32.214844 C 748.089844 30.398438 746.09375 28.761719 743.976562 27.292969 C 741.847656 25.847656 739.609375 24.535156 737.269531 23.414062 C 736.101562 22.851562 734.910156 22.320312 733.695312 21.828125 C 732.378906 21.308594 730.996094 20.878906 729.59375 20.585938 C 726.789062 19.980469 723.851562 19.859375 721.023438 20.335938 C 718.1875 20.800781 715.480469 21.828125 712.949219 23.148438 C 712.3125 23.476562 711.691406 23.835938 711.082031 24.214844 C 710.472656 24.589844 709.878906 24.996094 709.269531 25.4375 C 708.070312 26.328125 706.960938 27.320312 705.953125 28.378906 C 703.941406 30.511719 702.328125 32.914062 701.082031 35.421875 C 699.816406 37.929688 698.902344 40.546875 698.257812 43.199219 C 697.640625 45.859375 697.230469 48.515625 697.101562 51.210938 C 696.980469 53.898438 697.066406 56.59375 697.421875 59.25 C 697.765625 61.90625 698.324219 64.535156 699.15625 67.078125 L 699.46875 68.03125 L 699.808594 68.976562 C 700.03125 69.597656 700.308594 70.261719 700.578125 70.886719 C 701.128906 72.148438 701.753906 73.355469 702.429688 74.511719 C 703.78125 76.832031 705.335938 78.964844 707.011719 80.96875 C 708.683594 82.976562 710.492188 84.835938 712.414062 86.570312 C 714.109375 88.109375 715.910156 89.53125 717.792969 90.847656 C 717.683594 92.007812 717.550781 93.164062 717.382812 94.324219 C 717.078125 96.503906 716.640625 98.667969 716.152344 100.8125 C 715.90625 101.886719 715.632812 102.953125 715.367188 104.023438 L 714.511719 107.214844 L 712.675781 113.628906 L 711.1875 118.933594 L 716.546875 117.796875 C 719.570312 117.160156 722.5625 116.527344 725.570312 115.972656 C 727.074219 115.707031 728.570312 115.445312 730.078125 115.214844 C 730.828125 115.097656 731.582031 114.992188 732.335938 114.894531 C 733.085938 114.785156 733.839844 114.695312 734.59375 114.601562 C 735.34375 114.507812 736.097656 114.441406 736.851562 114.359375 L 739.117188 114.171875 C 740.625 114.066406 742.132812 113.980469 743.640625 113.964844 L 744.773438 113.949219 L 745.917969 113.960938 L 748.210938 113.984375 L 750.5 114.082031 L 751.648438 114.132812 L 752.792969 114.21875 C 755.851562 114.417969 758.902344 114.789062 761.949219 115.242188 C 764.992188 115.722656 768.023438 116.320312 771.035156 117.042969 C 777.0625 118.480469 783 120.433594 788.8125 122.808594 C 783.449219 119.546875 777.746094 116.765625 771.796875 114.554688 C 768.820312 113.464844 765.796875 112.464844 762.714844 111.652344 Z M 762.714844 111.652344 " fill-opacity="1" fill-rule="nonzero"/></g></g></g><g clip-path="url(#f5325e7b86)"><g clip-path="url(#3283cd5463)"><g clip-path="url(#ccaf89fc33)"><path fill="#004aad" d="M 843.28125 65.601562 C 843.335938 63.277344 843.21875 60.96875 842.960938 58.679688 C 842.695312 56.382812 842.277344 54.066406 841.625 51.769531 C 840.964844 49.46875 840.085938 47.199219 838.910156 45 C 837.730469 42.769531 836.195312 40.691406 834.425781 38.855469 C 832.644531 37.035156 830.617188 35.464844 828.464844 34.203125 C 824.136719 31.675781 819.394531 30.316406 814.71875 29.722656 C 812.382812 29.414062 810.019531 29.332031 807.746094 29.355469 C 805.457031 29.386719 803.175781 29.554688 800.921875 29.84375 C 796.414062 30.414062 792.011719 31.449219 787.769531 32.84375 C 785.644531 33.53125 783.554688 34.304688 781.511719 35.164062 C 779.46875 36.023438 777.460938 36.953125 775.527344 37.910156 C 773.589844 38.859375 771.703125 39.847656 769.855469 40.820312 C 768 41.792969 766.175781 42.738281 764.359375 43.625 C 763.453125 44.074219 762.550781 44.507812 761.644531 44.929688 L 758.8125 46.21875 C 756.945312 47.054688 755.097656 47.835938 753.265625 48.523438 C 749.613281 49.914062 745.9375 50.871094 742.621094 50.695312 C 739.246094 50.558594 735.832031 49.367188 732.574219 47.328125 C 730.9375 46.324219 729.347656 45.128906 727.796875 43.800781 C 726.238281 42.476562 724.734375 41.015625 723.175781 39.496094 L 722.839844 39.683594 C 723.351562 41.820312 724.175781 43.871094 725.230469 45.839844 C 726.292969 47.800781 727.605469 49.667969 729.195312 51.367188 C 730.789062 53.046875 732.65625 54.574219 734.804688 55.742188 C 735.339844 56.03125 735.886719 56.3125 736.453125 56.5625 C 737.019531 56.808594 737.597656 57.03125 738.1875 57.230469 C 739.367188 57.640625 740.59375 57.921875 741.835938 58.109375 C 743.074219 58.292969 744.355469 58.367188 745.578125 58.328125 C 746.8125 58.300781 748.015625 58.195312 749.191406 58.023438 C 751.535156 57.6875 753.773438 57.136719 755.925781 56.5 C 758.082031 55.863281 760.148438 55.097656 762.164062 54.335938 L 765.140625 53.179688 C 766.167969 52.773438 767.1875 52.359375 768.183594 51.925781 C 770.183594 51.050781 772.125 50.136719 774.035156 49.230469 L 779.667969 46.566406 C 781.519531 45.699219 783.347656 44.90625 785.191406 44.175781 C 787.039062 43.433594 788.894531 42.753906 790.773438 42.160156 C 794.527344 40.976562 798.335938 40.050781 802.171875 39.566406 C 805.984375 39.070312 809.890625 38.925781 813.519531 39.363281 C 817.175781 39.792969 820.671875 40.824219 823.628906 42.515625 C 825.109375 43.359375 826.445312 44.378906 827.621094 45.539062 C 828.777344 46.71875 829.789062 48.035156 830.589844 49.511719 C 831.417969 51.007812 832.089844 52.671875 832.613281 54.402344 C 833.140625 56.132812 833.527344 57.960938 833.78125 59.832031 C 834.035156 61.710938 834.175781 63.605469 834.179688 65.484375 C 834.175781 67.363281 834.03125 69.222656 833.753906 71.042969 C 833.464844 72.863281 833.027344 74.632812 832.421875 76.332031 C 831.804688 78.023438 831.042969 79.640625 830.074219 81.175781 C 828.171875 84.257812 825.605469 87.03125 822.617188 89.308594 C 821.109375 90.449219 819.503906 91.515625 817.828125 92.449219 C 816.15625 93.386719 814.398438 94.1875 812.59375 94.894531 C 810.785156 95.601562 808.921875 96.191406 807.019531 96.671875 C 806.121094 96.902344 805.222656 97.105469 804.308594 97.285156 C 804.347656 96.988281 804.394531 96.695312 804.429688 96.394531 C 804.515625 95.75 804.582031 95.105469 804.644531 94.457031 C 804.714844 93.808594 804.78125 93.160156 804.816406 92.507812 L 804.886719 91.53125 L 804.917969 91.042969 L 804.921875 90.40625 C 804.898438 89.574219 804.796875 88.796875 804.648438 88.039062 C 804.339844 86.527344 803.859375 85.105469 803.128906 83.703125 C 802.761719 83 802.332031 82.304688 801.773438 81.609375 C 801.625 81.433594 801.488281 81.261719 801.324219 81.085938 C 801.148438 80.910156 800.972656 80.730469 800.792969 80.5625 C 800.609375 80.398438 800.421875 80.238281 800.226562 80.085938 C 800.035156 79.9375 799.835938 79.804688 799.636719 79.664062 C 798.019531 78.601562 796.328125 78.128906 794.800781 77.859375 C 793.265625 77.613281 791.816406 77.574219 790.511719 77.574219 C 787.859375 77.566406 785.242188 77.710938 782.667969 77.972656 C 777.507812 78.488281 772.519531 79.390625 767.589844 80.078125 C 766.355469 80.25 765.125 80.414062 763.894531 80.546875 C 762.660156 80.699219 761.46875 80.78125 760.246094 80.890625 C 757.816406 81.039062 755.382812 81.039062 752.949219 80.917969 C 750.515625 80.765625 748.09375 80.457031 745.691406 79.988281 C 743.292969 79.503906 740.929688 78.824219 738.609375 77.992188 C 736.289062 77.144531 734.042969 76.082031 731.839844 74.898438 C 729.65625 73.683594 727.558594 72.289062 725.511719 70.785156 C 727.257812 72.621094 729.125 74.371094 731.160156 75.929688 C 733.207031 77.476562 735.382812 78.878906 737.679688 80.089844 C 739.984375 81.273438 742.390625 82.273438 744.871094 83.105469 C 747.363281 83.890625 749.914062 84.492188 752.5 84.9375 C 755.089844 85.339844 757.703125 85.566406 760.324219 85.652344 L 762.292969 85.671875 C 762.949219 85.683594 763.597656 85.671875 764.242188 85.652344 C 765.53125 85.621094 766.816406 85.566406 768.101562 85.5 C 773.226562 85.242188 778.25 84.78125 783.164062 84.539062 C 785.621094 84.417969 788.050781 84.335938 790.453125 84.375 C 791.0625 84.378906 791.640625 84.386719 792.179688 84.417969 C 792.722656 84.449219 793.238281 84.5 793.714844 84.578125 C 794.667969 84.71875 795.457031 84.976562 795.960938 85.292969 L 796.148438 85.417969 C 796.199219 85.460938 796.253906 85.503906 796.308594 85.546875 C 796.355469 85.59375 796.402344 85.636719 796.453125 85.679688 L 796.632812 85.867188 C 796.878906 86.144531 797.140625 86.515625 797.390625 86.910156 C 797.890625 87.710938 798.34375 88.65625 798.675781 89.589844 C 798.84375 90.054688 798.984375 90.523438 799.078125 90.949219 C 799.097656 91.050781 799.117188 91.152344 799.144531 91.257812 L 799.203125 91.714844 L 799.320312 92.632812 C 799.398438 93.242188 799.46875 93.855469 799.539062 94.46875 C 799.609375 95.082031 799.679688 95.699219 799.726562 96.316406 C 799.976562 98.789062 800.074219 101.285156 800.054688 103.78125 C 800.023438 106.28125 799.910156 108.785156 799.746094 111.296875 C 799.410156 116.3125 798.8125 121.335938 798.125 126.34375 L 798.5 126.417969 C 799.730469 121.511719 800.941406 116.59375 801.96875 111.601562 C 802.480469 109.128906 802.933594 106.636719 803.324219 104.125 C 805.046875 103.964844 806.769531 103.734375 808.488281 103.421875 C 810.6875 103.011719 812.878906 102.464844 815.035156 101.773438 C 819.347656 100.378906 823.492188 98.355469 827.285156 95.742188 C 831.101562 93.089844 834.53125 89.773438 837.210938 85.808594 C 838.554688 83.835938 839.679688 81.664062 840.574219 79.4375 C 841.457031 77.207031 842.113281 74.902344 842.5625 72.585938 C 843 70.265625 843.21875 67.925781 843.28125 65.601562 Z M 843.28125 65.601562 " fill-opacity="1" fill-rule="nonzero"/></g></g></g></svg>