<!DOCTYPE svg PUBLIC "-//W3C//DTD SVG 1.1//EN" "http://www.w3.org/Graphics/SVG/1.1/DTD/svg11.dtd">
<!-- Uploaded to: SVG Repo, www.svgrepo.com, Transformed by: SVG Repo Mixer Tools -->
<svg fill="#000000" width="800px" height="800px" viewBox="0 0 24 24" id="tea-bag-left-2" data-name="Flat Line" xmlns="http://www.w3.org/2000/svg" class="icon flat-line">
<g id="SVGRepo_bgCarrier" stroke-width="0"/>
<g id="SVGRepo_tracerCarrier" stroke-linecap="round" stroke-linejoin="round"/>
<g id="SVGRepo_iconCarrier">
<path id="secondary" d="M8.55,10.72,12,9h8a1,1,0,0,1,1,1v8a1,1,0,0,1-1,1H12L8.55,17.28a1,1,0,0,1-.55-.9V11.62A1,1,0,0,1,8.55,10.72Z" style="fill: #f7f8f8; stroke-width: 2;"/>
<path id="primary" d="M8.55,10.72,12,9h8a1,1,0,0,1,1,1v8a1,1,0,0,1-1,1H12L8.55,17.28a1,1,0,0,1-.55-.9V11.62A1,1,0,0,1,8.55,10.72Z" style="fill: none; stroke: #000000; stroke-linecap: round; stroke-linejoin: round; stroke-width: 2;"/>
<path id="primary-2" data-name="primary" d="M3,5V9.5A4.49,4.49,0,0,0,7.5,14H12" style="fill: none; stroke: #000000; stroke-linecap: round; stroke-linejoin: round; stroke-width: 2;"/>
<line id="primary-upstroke" x1="11.5" y1="14.05" x2="11.5" y2="13.95" style="fill: none; stroke: #000000; stroke-linecap: round; stroke-linejoin: round; stroke-width: 2.5;"/>
</g>
</svg>